<?xml version="1.0" standalone="no"?>
<!DOCTYPE svg PUBLIC "-//W3C//DTD SVG 20010904//EN"
 "http://www.w3.org/TR/2001/REC-SVG-20010904/DTD/svg10.dtd">
<svg version="1.0" xmlns="http://www.w3.org/2000/svg"
 width="100.000000pt" height="100.000000pt" viewBox="0 0 200.000000 200.000000"
 preserveAspectRatio="xMidYMid meet">

<g transform="translate(0.000000,200.000000) scale(0.100000,-0.100000)"
fill="#000000" stroke="none">
<path d="M634 1816 c-63 -54 -16 -154 67 -143 35 4 41 1 103 -62 63 -63 66
-69 66 -114 l0 -47 -37 0 c-33 0 -46 9 -108 70 l-70 69 -163 1 -163 0 -33 35
c-42 44 -77 46 -117 6 -31 -31 -36 -55 -18 -94 11 -25 47 -47 74 -47 27 0 63
22 74 46 10 24 12 24 169 24 l158 0 53 -54 52 -53 -50 -6 c-107 -13 -131 -53
-131 -219 l0 -113 -78 78 c-72 72 -80 77 -120 77 -35 0 -44 4 -54 24 -13 30
-59 50 -92 42 -98 -25 -76 -166 26 -166 11 0 35 16 54 35 25 26 41 35 66 35
29 0 45 -12 116 -84 60 -62 82 -91 82 -110 l0 -26 -120 0 c-114 0 -120 1 -131
23 -26 48 -67 59 -118 32 -51 -26 -56 -82 -12 -126 40 -40 75 -38 117 6 l33
35 115 0 c114 0 116 0 116 -23 0 -15 -29 -51 -88 -110 -74 -74 -92 -87 -120
-87 -25 0 -35 5 -42 24 -19 51 -94 63 -135 21 -35 -34 -33 -78 5 -117 26 -25
36 -29 63 -24 18 3 43 19 58 36 20 24 33 30 65 30 36 0 46 7 114 75 l75 76 5
-126 5 -127 37 -34 c32 -29 45 -34 88 -34 27 0 50 -3 50 -8 0 -4 -23 -30 -51
-57 l-51 -50 -153 0 -152 0 -31 33 c-80 85 -204 -16 -128 -104 35 -41 90 -39
126 4 l26 32 159 0 159 0 77 76 c69 67 82 75 111 72 32 -3 33 -4 36 -53 3 -50
2 -51 -63 -115 -60 -60 -68 -64 -104 -61 -50 3 -75 -10 -91 -49 -17 -41 1 -84
45 -104 38 -18 68 -11 99 23 15 16 18 30 13 64 -6 43 -6 44 63 112 l70 69 0
58 0 58 40 0 40 0 0 -128 c0 -122 -1 -128 -22 -137 -13 -6 -28 -26 -35 -45
-31 -95 98 -152 148 -65 14 25 15 36 6 65 -7 19 -22 39 -34 45 -22 9 -23 15
-23 137 l0 128 40 0 40 0 0 -58 0 -58 69 -68 c70 -69 70 -69 64 -115 -4 -40
-2 -49 20 -69 66 -62 171 5 137 88 -16 39 -41 52 -91 49 -36 -3 -44 1 -104 61
-65 64 -66 65 -63 115 3 49 3 50 38 53 32 3 42 -4 110 -73 l74 -75 160 0 160
0 26 -32 c22 -26 34 -32 65 -32 53 0 90 42 81 93 -12 75 -94 97 -148 39 l-31
-33 -152 0 -153 0 -51 50 c-28 27 -51 53 -51 57 0 5 23 8 50 8 43 0 56 5 88
34 l37 34 5 127 5 126 75 -76 c68 -68 78 -75 114 -75 32 0 45 -6 65 -30 15
-17 40 -33 58 -36 27 -5 37 -1 63 24 38 39 40 83 5 117 -41 42 -116 30 -135
-21 -7 -19 -17 -24 -42 -24 -28 0 -46 13 -120 87 -59 59 -88 95 -88 110 0 23
2 23 116 23 l115 0 33 -35 c19 -19 43 -35 54 -35 80 0 122 93 66 145 -44 41
-104 31 -133 -22 -11 -22 -17 -23 -131 -23 l-120 0 0 26 c0 19 22 48 82 110
71 72 87 84 116 84 25 0 41 -9 66 -35 35 -37 59 -42 99 -24 25 11 47 47 47 74
0 81 -119 114 -155 44 -13 -25 -21 -29 -58 -29 -39 0 -47 -5 -119 -77 l-78
-78 0 114 c0 164 -25 205 -131 218 l-50 6 52 53 53 54 158 0 c157 0 159 0 169
-24 11 -24 47 -46 74 -46 27 0 63 22 74 47 18 39 13 63 -18 94 -40 40 -75 38
-117 -6 l-33 -35 -161 0 -162 0 -71 -70 c-63 -62 -76 -70 -109 -70 l-38 0 0
47 c0 45 3 51 66 114 62 63 68 66 103 62 84 -11 130 89 66 144 -23 20 -36 24
-64 19 -51 -8 -74 -40 -68 -94 4 -42 3 -44 -64 -109 l-69 -66 0 -59 0 -58 -40
0 -40 0 0 106 c0 105 0 106 30 134 58 54 26 150 -50 150 -76 0 -108 -96 -50
-150 30 -28 30 -29 30 -134 l0 -106 -40 0 -40 0 0 58 0 58 -69 68 c-61 61 -69
73 -64 97 8 44 -5 77 -37 94 -40 21 -64 19 -96 -9z m88 -23 c22 -20 23 -51 1
-75 -21 -23 -45 -23 -67 1 -23 26 -17 63 14 78 32 16 30 16 52 -4z m306 1 c26
-18 28 -50 5 -76 -20 -22 -41 -23 -65 -1 -25 22 -23 59 4 77 12 9 25 16 28 16
3 0 16 -7 28 -16z m310 0 c26 -18 28 -50 5 -76 -20 -22 -41 -23 -65 -1 -22 20
-23 51 -1 75 20 22 32 23 61 2z m-1068 -184 c11 -11 20 -27 20 -35 0 -19 -36
-55 -55 -55 -19 0 -55 36 -55 55 0 19 36 55 55 55 8 0 24 -9 35 -20z m1530 0
c11 -11 20 -27 20 -35 0 -8 -9 -24 -20 -35 -11 -11 -27 -20 -35 -20 -8 0 -24
9 -35 20 -11 11 -20 27 -20 35 0 8 9 24 20 35 11 11 27 20 35 20 8 0 24 -9 35
-20z m-439 -210 c46 -25 49 -49 49 -388 0 -208 -4 -330 -11 -351 -21 -59 -33
-61 -399 -61 -366 0 -378 2 -399 61 -7 21 -11 143 -11 351 0 337 3 361 47 387
24 14 698 15 724 1z m-1091 -110 c25 -25 25 -45 -1 -71 -30 -30 -89 -5 -89 38
0 18 37 53 55 53 8 0 24 -9 35 -20z m1530 0 c11 -11 20 -27 20 -35 0 -8 -9
-24 -20 -35 -11 -11 -27 -20 -35 -20 -8 0 -24 9 -35 20 -11 11 -20 27 -20 35
0 8 9 24 20 35 11 11 27 20 35 20 8 0 24 -9 35 -20z m-1524 -255 c34 -53 -33
-108 -77 -64 -24 24 -24 44 1 69 27 27 56 25 76 -5z m1524 5 c25 -25 25 -45 1
-69 -44 -44 -111 11 -77 64 20 30 49 32 76 5z m-1524 -255 c15 -23 15 -27 0
-50 -21 -32 -59 -33 -80 -3 -20 29 -20 34 4 58 27 27 56 25 76 -5z m1524 5
c24 -24 24 -29 4 -58 -21 -30 -59 -29 -80 3 -15 23 -15 27 0 50 20 30 49 32
76 5z m-1524 -325 c15 -23 15 -27 0 -50 -10 -15 -26 -25 -41 -25 -15 0 -31 10
-41 25 -15 23 -15 27 0 50 10 15 26 25 41 25 15 0 31 -10 41 -25z m1530 0 c15
-23 15 -27 0 -50 -10 -15 -26 -25 -41 -25 -15 0 -31 10 -41 25 -15 23 -15 27
0 50 10 15 26 25 41 25 15 0 31 -10 41 -25z m-1082 -171 c19 -18 20 -38 6 -65
-12 -22 -59 -26 -78 -7 -15 15 -15 61 0 76 17 17 54 15 72 -4z m624 4 c17 -17
15 -63 -2 -77 -46 -38 -111 25 -71 69 20 22 55 26 73 8z m-320 -24 c26 -18 28
-50 5 -76 -20 -22 -41 -23 -65 -1 -25 22 -23 59 4 77 12 9 25 16 28 16 3 0 16
-7 28 -16z"/>
<path d="M875 1228 c-3 -7 -38 -111 -79 -230 l-75 -218 33 0 c31 0 33 2 55 70
l22 70 83 0 82 0 23 -70 c21 -66 24 -70 52 -70 16 0 29 4 29 9 0 5 -34 107
-75 227 -41 120 -75 219 -75 221 0 10 -71 1 -75 -9z m105 -255 c0 -2 -29 -3
-65 -3 -36 0 -65 4 -65 10 0 5 12 45 26 87 14 43 28 85 31 93 3 11 69 -159 73
-187z"/>
<path d="M1177 1233 c-4 -3 -7 -107 -7 -230 l0 -223 30 0 30 0 0 230 0 230
-23 0 c-13 0 -27 -3 -30 -7z"/>
</g>
</svg>
